<?xml version="1.0" encoding="UTF-8"?>
<svg id="Layer_2" data-name="Layer 2" xmlns="http://www.w3.org/2000/svg" viewBox="0 0 146.18 42.72">
  <defs>
    <style>
      .cls-1 {
        fill: #fff;
        stroke-width: 0px;
      }
    </style>
  </defs>
  <g id="Layer_1-2" data-name="Layer 1">
    <g>
      <g>
        <path class="cls-1" d="M20.73,42.72c-3.94,0-7.74-1.15-11.28-3.41-1.85-1.18-3.47-2.65-4.82-4.35C2.08,31.73.57,28.11.15,24.22c-.35-3.22-.1-6.34.75-9.27.74-2.57,1.99-4.93,3.83-7.24,2.41-2.98,5.37-5.15,8.8-6.47,2.16-.82,4.48-1.24,6.9-1.24.22,0,.43,0,.65,0,4.8.14,9.05,1.81,12.63,4.97,3.4,2.99,5.7,6.8,6.82,11.32.23.92.35,1.86.43,2.58.08.67.12,1.32.15,1.86l.03.53c-.1,6.36-2.21,11.49-6.46,15.63-2.27,2.2-4.78,3.78-7.46,4.71-1.81.63-3.51.99-5.19,1.09-.43.03-.86.04-1.28.04ZM8.95,25.79c.26,0,.5.16.76.49l.23.31c.73.97,1.48,1.97,2.17,2.99,2.25,3.35,3.33,6.65,3.28,10.08,0,.57.43.69.6.73,1.51.43,3.06.65,4.59.65,1.43,0,2.89-.19,4.33-.57.5-.13.73-.43.73-.97-.03-2.3.48-4.62,1.53-6.9.98-2.11,2.39-3.99,3.75-5.82l.08-.1c.2-.26.37-.46.56-.63.17-.14.36-.22.56-.22.21,0,.41.09.58.25.31.3.34.81.07,1.2-.12.18-.25.34-.38.51l-.21.27-.23.31c-1.16,1.55-2.36,3.15-3.2,4.98-.48,1.06-1,2.34-1.21,3.77-.02.11.02.23.09.32.08.09.19.14.3.14h.37c.18,0,.34-.12.39-.29l.08-.28c.08-.31.17-.62.26-.93.58-1.83,1.58-3.41,2.55-4.87.37-.55.74-1.09,1.12-1.64.8-1.17,1.64-2.37,2.38-3.61,1.83-3.06,2.53-6.3,2.08-9.61-.03-.19-.18-.33-.37-.35-.14,0-.28-.02-.42-.03-.3-.02-.6-.05-.91-.05-.09,0-.69.02-.69.02-1.12.03-2.28.07-3.43.2-1.99.24-3.59.85-4.9,1.87-1.89,1.47-2.81,3.28-2.8,5.52v.64c.02,1.26.03,2.57-.02,3.83-.02.46-.11,1.12-.4,1.67-.52,1-1.47,1.56-2.62,1.56-.71,0-1.43-.23-1.97-.64-.77-.58-1.16-1.44-1.17-2.53-.02-1.06,0-2.13,0-3.2v-1.59c.01-.88-.17-1.72-.52-2.48-.99-2.12-2.72-3.58-5.14-4.34-1.37-.43-2.84-.64-4.49-.64-.86,0-1.77.06-2.8.17-.27.04-.58.19-.58.7l.04,3.07c0,.12.01.25.03.38l.02.15c.27,1.96.96,3.87,2.05,5.72.65,1.09,1.37,2.15,2.08,3.17.33.48.66.96.99,1.45,1.5,2.24,2.62,4.19,3.19,6.42.12.49.5.53.61.53s.23-.03.36-.08c.18-.08.28-.28.23-.47-.06-.21-.11-.42-.16-.62-.08-.32-.16-.64-.25-.96-.63-2.11-1.74-4.16-3.51-6.47l-.15-.2c-.42-.55-.82-1.07-1.17-1.63-.15-.24-.19-.5-.11-.75.08-.25.27-.44.53-.55.1-.04.2-.06.3-.06ZM38.89,22.14c-.18,0-.34.12-.38.29-.06.2-.11.38-.18.57-.63,1.9-1.59,3.81-2.96,5.84-.41.6-.82,1.2-1.23,1.8-.72,1.05-1.44,2.09-2.13,3.15-.7,1.07-1.19,2.19-1.44,3.34-.04.16.03.33.18.42.07.04.14.06.21.06.09,0,.17-.03.24-.08,5.36-4.15,8.01-9.05,8.09-14.99,0-.2-.14-.37-.34-.4-.02,0-.04,0-.06,0ZM2.08,21.9c-.19.03-.33.2-.33.4.04,3.23.76,6.05,2.21,8.61,1.41,2.51,4.57,6.13,6.1,6.62.04.01.08.02.12.02.11,0,.22-.05.3-.13.1-.12.13-.29.07-.43-.13-.28-.24-.56-.36-.83-.28-.68-.55-1.31-.91-1.91-.9-1.49-1.9-2.95-2.86-4.36-1.22-1.78-2.46-3.73-3.27-5.91-.15-.38-.27-.76-.4-1.14-.07-.22-.14-.44-.22-.66-.06-.16-.21-.27-.38-.27-.02,0-.05,0-.07,0ZM7.03,13.99c1.66,0,3.16.18,4.57.56,2.75.72,4.79,2.14,6.22,4.33.9,1.38,1.34,2.75,1.33,4.19,0,.82-.02,4.11-.03,4.93,0,.45.15.86.42,1.13.25.25.58.38.96.38.89-.02,1.39-.59,1.4-1.52v-1.54c.02-1.05.03-2.1.01-3.15-.02-1.7.51-3.28,1.62-4.84,1.33-1.86,3.26-3.12,5.76-3.73,2.51-.62,5.06-.71,7.44-.72,0,0,.74,0,.74,0,.14,0,.27-.07.34-.19.07-.12.08-.26.02-.39-.2-.41-.37-.75-.49-1.03-.07-.14-.21-.23-.36-.23-.02,0-.03,0-.05,0-.42.05-.83.12-1.23.18-.79.12-1.54.23-2.3.28-.56.04-1.12.06-1.68.06-1.8,0-3.69-.2-5.59-.59l-1.17-.24c-2.74-.57-5.49-1.14-8.23-1.72-1.83-.38-3.62-.72-5.44-.72h-.19c-1.98.01-3.91.24-5.74.69-.2.06-.37.17-.48.3l-1.78,3.26c-.07.13-.06.29.02.42.08.11.2.17.33.17.02,0,.03,0,.05,0l.57-.08c.43-.06.8-.11,1.19-.14.6-.04,1.19-.07,1.79-.07ZM16.35,2.25s-.17.02-.21.03c-.74.2-1.43.41-2.08.63-.34.12-.67.26-1.01.41l-.5.21c-.15.06-.25.21-.25.37s.1.31.25.37c.34.14.67.26,1,.39.65.25,1.26.48,1.84.77,1.45.71,2.89,1.5,4.29,2.26l.37.2c2.42,1.33,4.68,2.2,6.92,2.67,1.37.29,2.74.44,4.07.44.35,0,.69-.01,1.04-.03.75-.05,1.51-.14,2.27-.22.37-.04.73-.08,1.09-.12.17-.02.31-.14.35-.3,0-.01.02-.1.02-.12.03-.12.01-.28-.06-.38l-.19-.25c-.28-.38-.56-.75-.87-1.1-.17-.2-.46-.33-.71-.33-.02,0-.1,0-.13.01-.58.07-1.19.11-1.86.11-.47,0-.94-.02-1.42-.05-1.77-.13-3.53-.52-5.24-1.14-2.84-1.06-5.4-2.61-8.37-4.62-.21-.13-.44-.2-.63-.2ZM10.72,7.63c1.46,0,2.93.13,4.39.38.02,0,.05,0,.07,0,.17,0,.33-.11.38-.28.06-.19-.04-.4-.22-.48,0,0-.24-.12-.3-.15-1.33-.58-2.75-1.05-4.32-1.43-.28-.06-.51-.1-.73-.1-.54,0-1,.2-1.4.61-.2.2-.41.38-.62.56-.14.12-.28.23-.41.35-.13.12-.17.3-.1.46.06.15.21.24.37.24.01,0,.03,0,.04,0,.95-.1,1.91-.16,2.85-.16ZM21.65,1.81c-.34,0-.65.02-.93.06-.16.02-.3.15-.33.31s.03.33.17.42c3.88,2.59,7.45,3.82,11.24,3.87h0c.17,0,.32-.11.38-.26.06-.16,0-.34-.13-.45-3.23-2.59-7.68-3.95-10.4-3.95Z"/>
        <path class="cls-1" d="M11.08,22.8c-1.37.03-2.63-.28-3.74-.93-.33-.19-.58-.49-.73-.72-.21-.32-.1-.73.13-.96.11-.11.26-.18.43-.19s.35.02.53.11l.37.18c.49.24.99.48,1.55.61.46.1.92.13,1.37.1.86-.07,1.67-.39,2.41-.95.16-.12.33-.19.5-.2.33-.03.6.14.72.45.16.4.09.77-.22,1.16-.43.51-1.04.77-1.58.96-.4.12-.82.2-1.22.29l-.5.11Z"/>
        <path class="cls-1" d="M29.87,22.78c-.73,0-1.53-.19-2.39-.57-.47-.2-.78-.45-.98-.8-.18-.3-.16-.71.04-.95.16-.2.37-.3.6-.3.1,0,.21.02.31.07.18.08.35.16.52.24.35.18.72.36,1.13.44.42.09.82.13,1.21.13,1.11,0,2.12-.36,3-1.06.2-.15.38-.23.56-.23.12,0,.23.04.34.12.33.24.44.62.27,1.01-.12.28-.29.52-.47.66-1.03.8-2.4,1.25-3.84,1.25h-.29Z"/>
        <path class="cls-1" d="M20.96,36.17c-.88,0-1.75,0-2.63-.02-.41,0-.69-.18-.86-.56-.15-.33-.11-.63.12-.91.18-.22.4-.32.73-.32.51,0,1-.01,1.49-.01h2.01c.27,0,.55,0,.82,0,.61.01.97.34.97.89,0,.54-.4.91-.97.91-.57,0-1.12,0-1.68,0Z"/>
      </g>
      <g>
        <path class="cls-1" d="M141.17,40.35h-2.39s0-19.88,0-19.88h-4.98s0-.29,0-.29h12.39s0,.29,0,.29h-5.01s0,19.88,0,19.88Z"/>
        <path class="cls-1" d="M131.03,21.39c-1.75-.67-3.4-1.01-4.96-1.01-1.54,0-2.74.33-3.6.98-.86.65-1.3,1.56-1.3,2.71,0,1.4.73,2.49,2.19,3.26.65.33,1.36.63,2.13.92.79.27,1.57.58,2.36.92.79.35,1.51.74,2.16,1.18.65.44,1.18,1.06,1.58,1.84.4.77.61,1.76.61,2.97,0,1.19-.34,2.21-1.01,3.05-.67.85-1.49,1.42-2.45,1.73-.94.29-2.05.43-3.31.43-2.36,0-4.38-.59-6.05-1.76l.14-.23c.63.5,1.45.91,2.45,1.24,1.02.31,2.06.46,3.11.46,1.56,0,2.88-.36,3.98-1.07,1.11-.73,1.67-1.8,1.67-3.2,0-1.54-.73-2.74-2.19-3.6-.65-.38-1.37-.74-2.16-1.07-.77-.33-1.55-.66-2.33-1.01-.79-.36-1.51-.77-2.16-1.21-1.46-.96-2.19-2.32-2.19-4.09,0-1.4.47-2.54,1.41-3.4.94-.88,2.35-1.33,4.24-1.33s3.83.33,5.79.98l-.12.29Z"/>
        <path class="cls-1" d="M116.73,20.18v.29s-9.08,0-9.08,0v8.64s8.41,0,8.41,0v.29s-8.41,0-8.41,0v10.66s9.71,0,9.71,0v.29s-12.1,0-12.1,0v-20.17s11.47,0,11.47,0Z"/>
        <path class="cls-1" d="M88.41,40.35h-.37s0-20.17,0-20.17h.98s11.99,18.64,11.99,18.64v-18.64s.37,0,.37,0v20.17s-2.1,0-2.1,0l-10.86-16.71v16.71Z"/>
        <path class="cls-1" d="M84.2,20.18h.37s0,11.53,0,11.53c0,3.02-.6,5.23-1.79,6.66-1.19,1.4-2.75,2.1-4.67,2.1-1.21,0-2.24-.11-3.08-.32-.85-.23-1.64-.64-2.39-1.24-1.54-1.19-2.31-3.59-2.31-7.2v-11.53s2.39,0,2.39,0v11.5c0,3.5.53,5.83,1.58,7,.54.58,1.1.97,1.67,1.18.6.21,1.31.32,2.13.32,1.84,0,3.31-.67,4.41-2.02,1.11-1.36,1.67-3.52,1.67-6.48v-11.5Z"/>
        <path class="cls-1" d="M49.31,30.76c0-3.5.85-6.15,2.54-7.95,1.71-1.82,3.9-2.74,6.57-2.74s4.79.79,6.37,2.36c1.59,1.58,2.39,4.09,2.39,7.55,0,3.46-.85,6.07-2.54,7.84-1.69,1.77-3.95,2.65-6.77,2.65-2.44,0-4.44-.7-5.99-2.1-.81-.73-1.44-1.74-1.9-3.03-.44-1.31-.66-2.83-.66-4.58ZM58.33,20.35c-1.94,0-3.53.86-4.78,2.59-1.23,1.73-1.84,4.26-1.84,7.61s.59,5.78,1.76,7.32c1.17,1.54,2.73,2.31,4.67,2.31s3.55-.86,4.78-2.59c1.25-1.75,1.87-4.27,1.87-7.58,0-3.32-.6-5.76-1.79-7.32-1.17-1.56-2.73-2.33-4.67-2.33Z"/>
      </g>
    </g>
  </g>
</svg>