<?xml version="1.0" encoding="UTF-8"?>
<svg id="Layer_1" data-name="Layer 1" xmlns="http://www.w3.org/2000/svg" viewBox="0 0 180.4 53.57">
  <defs>
    <style>
      .cls-1 {
        fill: #838a8a;
        stroke-width: 0px;
      }
    </style>
  </defs>
  <g>
    <path class="cls-1" d="M51.61,26.62c-.12,7.9-2.71,14.37-8.1,19.62-2.72,2.63-5.81,4.68-9.37,5.91-2.1.73-4.28,1.23-6.52,1.37-5.69.35-10.93-1.14-15.76-4.22-2.31-1.48-4.34-3.3-6.05-5.46C2.71,39.89.74,35.44.19,30.35c-.43-3.94-.16-7.82.94-11.6.97-3.38,2.64-6.37,4.8-9.08,2.99-3.69,6.65-6.43,11.04-8.11C20.02.39,23.21-.08,26.45.01c5.99.18,11.29,2.22,15.86,6.23,4.32,3.8,7.14,8.55,8.55,14.18.26,1.06.42,2.16.54,3.23.14,1.11.17,2.21.22,2.96ZM45.74,20.68c-.61-.04-1.26-.13-1.93-.09-1.56.05-3.14.08-4.7.26-2.08.25-4.08.87-5.79,2.2-2.07,1.61-3.27,3.68-3.26,6.41.01,1.85.04,3.7-.03,5.53-.04.77-.2,1.6-.55,2.26-1.34,2.57-4.53,2.7-6.38,1.3-1.14-.86-1.62-2.09-1.64-3.51-.03-1.96,0-3.93.01-5.89,0-.99-.19-1.94-.61-2.84-1.24-2.66-3.37-4.25-6.03-5.08-2.87-.9-5.81-.89-8.77-.56-.25.04-.28.16-.28.38.01,1.26.03,2.52.04,3.77,0,.2.03.41.05.61.34,2.46,1.22,4.73,2.45,6.83,1.15,1.94,2.5,3.78,3.75,5.67,1.68,2.5,3.23,5.07,3.99,8.06.07.29.23.34.52.22-.17-.65-.31-1.29-.5-1.94-.87-2.91-2.42-5.43-4.24-7.81-.58-.76-1.15-1.49-1.66-2.29-.56-.88-.19-1.94.74-2.32.67-.27,1.3-.07,1.87.69,1.01,1.35,2.03,2.68,2.97,4.08,2.57,3.81,4.19,7.99,4.12,12.69,0,.31.16.36.37.41,3.57,1.01,7.14,1.04,10.74.1.4-.11.53-.29.53-.72-.05-3.05.66-5.95,1.93-8.69,1.25-2.69,3.01-5.02,4.76-7.37.23-.3.47-.59.76-.84.65-.56,1.47-.52,2.07.04.56.54.63,1.44.15,2.12-.23.34-.49.65-.74.97-1.53,2.04-3.09,4.07-4.17,6.42-.65,1.44-1.22,2.89-1.45,4.51h.46c.14-.52.26-1,.42-1.51.71-2.24,1.92-4.2,3.2-6.12,1.44-2.15,2.97-4.23,4.29-6.44,2.09-3.5,3.06-7.32,2.5-11.51ZM4.72,17.57c.84-.11,1.51-.21,2.19-.26,2.7-.19,5.36-.08,7.99.63,3.31.87,6.02,2.6,7.94,5.53,1.06,1.64,1.73,3.44,1.72,5.43s-.03,4.04-.03,6.07c0,.84.5,1.38,1.24,1.37.77-.02,1.19-.5,1.19-1.38,0-1.92.04-3.84.01-5.77-.03-2.34.76-4.4,2.08-6.25,1.83-2.56,4.39-4.05,7.37-4.78,3.05-.75,6.15-.88,9.27-.89.28,0,.56,0,.91,0-.24-.5-.45-.94-.61-1.28-1.51.19-2.94.48-4.38.56-3.05.21-6.08-.05-9.07-.67-3.85-.8-7.72-1.6-11.57-2.42-2.26-.47-4.52-.91-6.83-.88-2.35.01-4.68.28-6.96.83-.12.04-.25.11-.32.2-.7,1.29-1.39,2.57-2.15,3.95ZM44.08,13.08c.02-.07.02-.13.04-.2-.42-.56-.82-1.12-1.27-1.64-.12-.14-.38-.27-.58-.23-1.38.18-2.75.17-4.15.08-2.26-.17-4.47-.66-6.58-1.43-3.75-1.39-7.1-3.5-10.41-5.74-.17-.11-.44-.2-.61-.15-.86.23-1.7.48-2.54.77-.6.21-1.17.48-1.82.75,1.24.51,2.43.89,3.54,1.45,1.94.96,3.85,2,5.74,3.03,2.66,1.46,5.42,2.62,8.38,3.23,2.03.44,4.1.62,6.16.5,1.37-.09,2.75-.28,4.12-.42ZM3.14,27.93c.04,3.68.84,7.15,2.66,10.35,1.76,3.13,5.59,7.4,7.23,7.92-.52-1.17-.92-2.32-1.53-3.33-1.1-1.82-2.3-3.58-3.51-5.34-1.59-2.32-3.09-4.71-4.08-7.38-.28-.72-.5-1.47-.77-2.23ZM48.35,28.23c-.07.25-.14.48-.23.74-.86,2.62-2.17,5.03-3.7,7.3-1.37,2.03-2.79,4.04-4.13,6.08-.79,1.2-1.39,2.51-1.71,3.95,5.86-4.53,9.66-10.25,9.76-18.07ZM39.62,7.97c-4.18-3.35-10.39-5.14-13.56-4.68,4.13,2.76,8.5,4.62,13.56,4.68ZM19.18,9.86c-.12-.05-.24-.13-.37-.18-1.7-.74-3.45-1.3-5.23-1.74-.86-.2-1.52-.15-2.16.5-.4.41-.86.75-1.3,1.15,3.07-.33,6.06-.24,9.06.27Z"/>
    <path class="cls-1" d="M14,29.09c-1.75-.09-3.36-.6-4.8-1.59-.4-.27-.73-.68-.98-1.12-.33-.61-.14-1.35.35-1.78.47-.41,1.16-.41,1.75-.07.7.4,1.4.87,2.17,1.1,1.51.45,2.96.24,4.31-.62.88-.55,1.91-.23,2.21.69.23.72.01,1.35-.49,1.89-.63.65-1.44.95-2.26,1.16-.77.16-1.52.23-2.26.34Z"/>
    <path class="cls-1" d="M37.42,29.02c-1.07.03-2.21-.26-3.31-.74-.6-.25-1.1-.61-1.43-1.19-.33-.56-.28-1.28.09-1.72.42-.52,1.09-.7,1.7-.43.65.27,1.26.67,1.92.81,1.72.36,3.35.1,4.77-1.05.6-.47,1.19-.52,1.7-.16.58.41.8,1.13.5,1.83-.16.38-.4.75-.72,1-1.4,1.09-3.26,1.68-5.22,1.64Z"/>
    <path class="cls-1" d="M25.76,42.28c.88,0,1.73-.01,2.61,0,1.02.02,1.68.65,1.68,1.58s-.69,1.62-1.69,1.61c-1.77.01-3.54,0-5.31-.01-.68,0-1.21-.33-1.5-.97-.26-.58-.19-1.15.21-1.63.33-.41.77-.57,1.28-.57.91-.02,1.82-.01,2.72-.01Z"/>
  </g>
  <g>
    <path class="cls-1" d="M174.23,50.15h-2.94s0-24.47,0-24.47h-6.13s0-.35,0-.35h15.25s0,.35,0,.35h-6.17s0,24.47,0,24.47Z"/>
    <path class="cls-1" d="M161.75,26.82c-2.15-.83-4.18-1.24-6.1-1.24-1.89,0-3.37.4-4.43,1.21-1.06.8-1.6,1.91-1.6,3.33,0,1.73.9,3.06,2.7,4.01.8.4,1.68.78,2.62,1.13.97.33,1.94.71,2.91,1.13.97.43,1.86.91,2.66,1.45.8.54,1.45,1.3,1.95,2.27.5.95.74,2.16.74,3.65,0,1.47-.41,2.72-1.24,3.76-.83,1.04-1.83,1.75-3.01,2.13-1.16.35-2.52.53-4.08.53-2.91,0-5.39-.72-7.45-2.16l.18-.28c.78.61,1.78,1.12,3.01,1.52,1.25.38,2.53.57,3.83.57,1.91,0,3.55-.44,4.89-1.31,1.37-.9,2.06-2.21,2.06-3.94,0-1.89-.9-3.37-2.7-4.43-.8-.47-1.69-.91-2.66-1.31-.95-.4-1.9-.82-2.87-1.24-.97-.45-1.86-.95-2.66-1.49-1.8-1.18-2.69-2.86-2.69-5.04,0-1.73.58-3.12,1.74-4.18,1.16-1.09,2.9-1.63,5.21-1.63s4.72.4,7.13,1.21l-.14.35Z"/>
    <path class="cls-1" d="M144.15,25.33v.35s-11.17,0-11.17,0v10.64s10.35,0,10.35,0v.35s-10.35,0-10.35,0v13.12s11.95,0,11.95,0v.35s-14.89,0-14.89,0v-24.82s14.11,0,14.11,0Z"/>
    <path class="cls-1" d="M109.3,50.15h-.46s0-24.82,0-24.82h1.21s14.75,22.94,14.75,22.94v-22.94s.46,0,.46,0v24.82s-2.59,0-2.59,0l-13.37-20.57v20.57Z"/>
    <path class="cls-1" d="M104.12,25.33h.46s0,14.18,0,14.18c0,3.71-.73,6.44-2.2,8.19-1.47,1.73-3.38,2.59-5.74,2.59-1.49,0-2.75-.13-3.79-.39-1.04-.28-2.02-.79-2.94-1.52-1.89-1.47-2.84-4.42-2.84-8.87v-14.18s2.94,0,2.94,0v14.15c0,4.3.65,7.17,1.95,8.62.66.71,1.35,1.19,2.06,1.45.73.26,1.61.39,2.62.39,2.27,0,4.08-.83,5.43-2.48,1.37-1.68,2.06-4.34,2.06-7.98v-14.15Z"/>
    <path class="cls-1" d="M61.18,38.34c0-4.3,1.04-7.57,3.12-9.79,2.1-2.25,4.8-3.37,8.09-3.37s5.9.97,7.84,2.91c1.96,1.94,2.94,5.04,2.94,9.29,0,4.26-1.04,7.47-3.12,9.65-2.08,2.17-4.86,3.26-8.33,3.26-3,0-5.46-.86-7.38-2.59-.99-.9-1.77-2.14-2.34-3.72-.54-1.61-.82-3.49-.82-5.64ZM72.28,25.54c-2.39,0-4.35,1.06-5.89,3.19-1.51,2.13-2.27,5.25-2.27,9.36s.72,7.12,2.16,9.01c1.44,1.89,3.36,2.84,5.74,2.84s4.37-1.06,5.89-3.19c1.54-2.15,2.3-5.26,2.3-9.33,0-4.09-.73-7.09-2.2-9.01-1.44-1.91-3.36-2.87-5.74-2.87Z"/>
  </g>
</svg>