<?xml version="1.0" encoding="UTF-8"?>
<svg id="Layer_2" data-name="Layer 2" xmlns="http://www.w3.org/2000/svg" viewBox="0 0 146.63 43.62">
  <defs>
    <style>
      .cls-1 {
        stroke: #000;
        stroke-miterlimit: 10;
        stroke-width: .1px;
      }

      .cls-1, .cls-2 {
        fill: #fff;
      }

      .cls-2 {
        stroke-width: 0px;
      }
    </style>
  </defs>
  <g id="Layer_1-2" data-name="Layer 1">
    <g>
      <g>
        <path class="cls-1" d="M41.99,21.68c-.1,6.42-2.2,11.67-6.58,15.94-2.21,2.14-4.72,3.8-7.61,4.8-1.71.59-3.48,1-5.3,1.11-4.63.28-8.88-.93-12.8-3.43-1.88-1.2-3.52-2.68-4.91-4.43C2.25,32.47.65,28.84.21,24.71c-.35-3.2-.13-6.35.76-9.43.79-2.74,2.15-5.18,3.9-7.38,2.43-3,5.41-5.23,8.97-6.59C16.32.37,18.91-.02,21.54.06c4.87.14,9.18,1.8,12.88,5.07,3.51,3.09,5.81,6.95,6.95,11.52.21.86.34,1.75.44,2.63.11.91.14,1.8.18,2.41ZM37.22,16.85c-.5-.03-1.02-.1-1.57-.08-1.27.04-2.55.07-3.81.21-1.69.2-3.32.71-4.7,1.78-1.68,1.31-2.65,2.99-2.64,5.21.01,1.5.04,3.01-.02,4.5-.03.63-.16,1.3-.45,1.84-1.09,2.08-3.68,2.2-5.18,1.05-.92-.7-1.32-1.7-1.33-2.85-.02-1.59,0-3.2.01-4.79,0-.8-.15-1.58-.49-2.31-1.01-2.16-2.74-3.45-4.9-4.13-2.33-.74-4.72-.73-7.13-.45-.2.03-.23.13-.23.31.01,1.02.02,2.04.04,3.07,0,.16.03.34.04.5.28,2,.99,3.84,1.99,5.55.94,1.58,2.03,3.07,3.05,4.61,1.36,2.03,2.62,4.12,3.24,6.55.06.23.18.28.43.18-.14-.53-.25-1.05-.41-1.58-.71-2.37-1.97-4.41-3.44-6.34-.47-.61-.94-1.21-1.35-1.86-.45-.72-.15-1.58.6-1.88.54-.22,1.05-.06,1.52.56.82,1.1,1.65,2.18,2.41,3.32,2.09,3.1,3.4,6.49,3.35,10.31,0,.25.13.29.3.34,2.9.82,5.81.85,8.72.08.33-.09.43-.23.43-.58-.04-2.48.54-4.83,1.57-7.06,1.02-2.19,2.44-4.08,3.87-5.99.19-.25.39-.48.61-.68.53-.45,1.2-.42,1.68.03.45.44.51,1.17.12,1.72-.19.28-.4.52-.6.79-1.24,1.66-2.51,3.31-3.39,5.22-.53,1.17-.99,2.35-1.18,3.66h.37c.11-.42.22-.82.34-1.22.57-1.82,1.56-3.41,2.6-4.97,1.17-1.75,2.41-3.44,3.48-5.23,1.7-2.84,2.49-5.95,2.03-9.35ZM3.89,14.33c.68-.09,1.22-.17,1.78-.21,2.19-.16,4.36-.06,6.49.51,2.69.71,4.89,2.11,6.45,4.5.87,1.33,1.4,2.79,1.4,4.41s-.02,3.28-.03,4.93c0,.69.41,1.12,1.01,1.11.63-.01.97-.41.97-1.12,0-1.56.04-3.12.01-4.69-.02-1.9.62-3.57,1.69-5.08,1.48-2.08,3.57-3.29,5.99-3.88,2.48-.61,5-.72,7.53-.73h.74c-.2-.41-.37-.76-.5-1.04-1.22.16-2.39.39-3.56.46-2.48.17-4.94-.04-7.37-.54-3.13-.65-6.27-1.3-9.4-1.96-1.84-.38-3.67-.74-5.55-.71-1.91.01-3.8.22-5.65.67-.1.03-.2.09-.26.16-.57,1.05-1.13,2.08-1.74,3.21ZM35.86,10.68c.01-.06.01-.1.03-.16-.34-.45-.67-.91-1.04-1.33-.1-.12-.31-.22-.47-.19-1.12.14-2.23.14-3.37.07-1.84-.14-3.63-.53-5.35-1.17-3.04-1.13-5.77-2.85-8.46-4.66-.14-.09-.36-.16-.5-.12-.7.19-1.38.39-2.07.62-.48.17-.95.39-1.48.61,1.01.41,1.98.72,2.87,1.17,1.58.78,3.13,1.63,4.66,2.46,2.16,1.19,4.41,2.13,6.81,2.63,1.65.35,3.33.5,5.01.41,1.11-.07,2.24-.23,3.35-.34ZM2.6,22.75c.04,2.99.68,5.81,2.16,8.41,1.43,2.54,4.54,6.01,5.88,6.44-.42-.95-.75-1.88-1.25-2.7-.89-1.48-1.87-2.91-2.85-4.34-1.29-1.89-2.51-3.83-3.32-5.99-.23-.58-.41-1.2-.62-1.81ZM39.34,22.99c-.06.2-.11.39-.19.6-.7,2.13-1.76,4.08-3,5.93-1.11,1.65-2.27,3.28-3.36,4.94-.64.98-1.13,2.04-1.39,3.21,4.76-3.68,7.85-8.33,7.93-14.68ZM32.24,6.52c-3.4-2.72-8.44-4.18-11.02-3.81,3.35,2.24,6.91,3.75,11.02,3.81ZM15.63,8.06c-.1-.04-.2-.1-.3-.15-1.38-.6-2.8-1.06-4.25-1.41-.7-.16-1.24-.12-1.75.4-.33.33-.7.61-1.06.93,2.49-.27,4.93-.19,7.36.22Z"/>
        <path class="cls-1" d="M11.43,23.68c-1.42-.08-2.73-.49-3.9-1.29-.33-.22-.6-.56-.79-.91-.27-.5-.11-1.1.29-1.44.39-.33.94-.33,1.42-.06.57.32,1.14.7,1.76.89,1.22.37,2.4.2,3.5-.5.71-.45,1.55-.19,1.79.56.18.58.01,1.09-.4,1.53-.51.52-1.17.77-1.84.94-.63.13-1.24.19-1.84.27Z"/>
        <path class="cls-1" d="M30.45,23.63c-.87.03-1.79-.21-2.69-.6-.48-.21-.9-.5-1.16-.97-.27-.45-.23-1.04.07-1.4.34-.42.88-.57,1.38-.35.53.22,1.02.54,1.56.66,1.39.3,2.72.08,3.87-.85.48-.38.97-.42,1.38-.13.47.34.65.92.41,1.49-.13.31-.33.61-.59.82-1.14.89-2.65,1.37-4.24,1.33Z"/>
        <path class="cls-1" d="M20.98,34.41c.71,0,1.41-.01,2.12,0,.83.02,1.37.53,1.36,1.29s-.56,1.31-1.37,1.31c-1.44.01-2.88,0-4.31,0-.56,0-.98-.26-1.22-.79-.21-.47-.15-.93.17-1.33.27-.34.63-.47,1.04-.46.74-.01,1.48-.01,2.21,0Z"/>
      </g>
      <g>
        <path class="cls-2" d="M141.62,40.8h-2.39s0-19.88,0-19.88h-4.98s0-.29,0-.29h12.39s0,.29,0,.29h-5.01s0,19.88,0,19.88Z"/>
        <path class="cls-2" d="M131.48,21.84c-1.75-.67-3.4-1.01-4.96-1.01-1.54,0-2.74.33-3.6.98-.86.65-1.3,1.56-1.3,2.71,0,1.4.73,2.49,2.19,3.26.65.33,1.36.63,2.13.92.79.27,1.57.58,2.36.92.79.35,1.51.74,2.16,1.18.65.44,1.18,1.06,1.58,1.84.4.77.61,1.76.61,2.97,0,1.19-.34,2.21-1.01,3.05-.67.85-1.49,1.42-2.45,1.73-.94.29-2.05.43-3.31.43-2.36,0-4.38-.59-6.05-1.76l.14-.23c.63.5,1.45.91,2.45,1.24,1.02.31,2.06.46,3.11.46,1.56,0,2.88-.36,3.98-1.07,1.11-.73,1.67-1.8,1.67-3.2,0-1.54-.73-2.74-2.19-3.6-.65-.38-1.37-.74-2.16-1.07-.77-.33-1.55-.66-2.33-1.01-.79-.36-1.51-.77-2.16-1.21-1.46-.96-2.19-2.32-2.19-4.09,0-1.4.47-2.54,1.41-3.4.94-.88,2.35-1.33,4.24-1.33s3.83.33,5.79.98l-.12.29Z"/>
        <path class="cls-2" d="M117.18,20.63v.29s-9.08,0-9.08,0v8.64s8.41,0,8.41,0v.29s-8.41,0-8.41,0v10.66s9.71,0,9.71,0v.29s-12.1,0-12.1,0v-20.17s11.47,0,11.47,0Z"/>
        <path class="cls-2" d="M88.86,40.8h-.37s0-20.17,0-20.17h.98s11.99,18.64,11.99,18.64v-18.64s.37,0,.37,0v20.17s-2.1,0-2.1,0l-10.86-16.71v16.71Z"/>
        <path class="cls-2" d="M84.65,20.63h.37s0,11.53,0,11.53c0,3.02-.6,5.23-1.79,6.66-1.19,1.4-2.75,2.1-4.67,2.1-1.21,0-2.24-.11-3.08-.32-.85-.23-1.64-.64-2.39-1.24-1.54-1.19-2.31-3.59-2.31-7.2v-11.53s2.39,0,2.39,0v11.5c0,3.5.53,5.83,1.58,7,.54.58,1.1.97,1.67,1.18.6.21,1.31.32,2.13.32,1.84,0,3.31-.67,4.41-2.02,1.11-1.36,1.67-3.52,1.67-6.48v-11.5Z"/>
        <path class="cls-2" d="M49.76,31.21c0-3.5.85-6.15,2.54-7.95,1.71-1.82,3.9-2.74,6.57-2.74s4.79.79,6.37,2.36c1.59,1.58,2.39,4.09,2.39,7.55,0,3.46-.85,6.07-2.54,7.84-1.69,1.77-3.95,2.65-6.77,2.65-2.44,0-4.44-.7-5.99-2.1-.81-.73-1.44-1.74-1.9-3.03-.44-1.31-.66-2.83-.66-4.58ZM58.78,20.8c-1.94,0-3.53.86-4.78,2.59-1.23,1.73-1.84,4.26-1.84,7.61s.59,5.78,1.76,7.32c1.17,1.54,2.73,2.31,4.67,2.31s3.55-.86,4.78-2.59c1.25-1.75,1.87-4.27,1.87-7.58,0-3.32-.6-5.76-1.79-7.32-1.17-1.56-2.73-2.33-4.67-2.33Z"/>
      </g>
    </g>
  </g>
</svg>